{
	"asset": {
		"generator": "Blocks 4.0.1_OVR_RC0",
		"version": "1.1",
		"copyright": "Unknown"
	},
	"buffers": {
		"model": {
			"byteLength": 876064,
			"type": "arraybuffer",
			"uri": "model.bin"
		}
	},
	"accessors": {
		"accessor_position_m0-PolyPaper21_-25496": {
			"bufferView": "vec3BufferView",
			"byteOffset": 0,
			"byteStride": 12,
			"componentType": 5126,
			"count": 19974,
			"max": [ 0.4284815, 3.075216, 0.5179098 ],
			"min": [ -0.5615705, 0.5808067, -0.6345505 ],
			"type": "VEC3"
		 },
		"accessor_normal_m0-PolyPaper21_-25496": {
			"bufferView": "vec3BufferView",
			"byteOffset": 239688,
			"byteStride": 12,
			"componentType": 5126,
			"count": 19974,
			"max": [ 0.9998713, 0.9999495, 0.998731 ],
			"min": [ -0.999648, -0.9987624, -0.9995092 ],
			"type": "VEC3"
		 },
		"accessor_color_m0-PolyPaper21_-25496": {
			"bufferView": "vec4BufferView",
			"byteOffset": 0,
			"byteStride": 16,
			"componentType": 5126,
			"count": 19974,
			"max": [ 1, 1, 1, 1 ],
			"min": [ 1, 1, 1, 1 ],
			"type": "VEC4"
		 },
		"accessor_indices_0_m0-PolyPaper21_-25496": {
			"bufferView": "ushortBufferView",
			"byteOffset": 0,
			"byteStride": 0,
			"componentType": 5123,
			"count": 33768,
			"max": [ 19973 ],
			"min": [ 0 ],
			"type": "SCALAR"
		 },
		"accessor_position_m1-PolyPaper21_-25502": {
			"bufferView": "vec3BufferView",
			"byteOffset": 479376,
			"byteStride": 12,
			"componentType": 5126,
			"count": 220,
			"max": [ -0.0389448, 1.223996, -0.2014067 ],
			"min": [ -0.3373321, 0.9645436, -0.5586437 ],
			"type": "VEC3"
		 },
		"accessor_normal_m1-PolyPaper21_-25502": {
			"bufferView": "vec3BufferView",
			"byteOffset": 482016,
			"byteStride": 12,
			"componentType": 5126,
			"count": 220,
			"max": [ 0.9250674, 0.9893962, 0.9975694 ],
			"min": [ -0.9592218, -0.996909, -0.9801893 ],
			"type": "VEC3"
		 },
		"accessor_color_m1-PolyPaper21_-25502": {
			"bufferView": "vec4BufferView",
			"byteOffset": 319584,
			"byteStride": 16,
			"componentType": 5126,
			"count": 220,
			"max": [ 1, 1, 1, 1 ],
			"min": [ 1, 1, 1, 1 ],
			"type": "VEC4"
		 },
		"accessor_indices_0_m1-PolyPaper21_-25502": {
			"bufferView": "ushortBufferView",
			"byteOffset": 67536,
			"byteStride": 0,
			"componentType": 5123,
			"count": 384,
			"max": [ 219 ],
			"min": [ 0 ],
			"type": "SCALAR"
		 }
	},
	"bufferViews": {
		"ushortBufferView": {
			"buffer": "model",
			"byteLength": 68304,
			"byteOffset": 0,
			"target": 34963
		},
		"vec3BufferView": {
			"buffer": "model",
			"byteLength": 484656,
			"byteOffset": 68304,
			"target": 34962
		},
		"vec4BufferView": {
			"buffer": "model",
			"byteLength": 323104,
			"byteOffset": 552960,
			"target": 34962
		}
	},
	"meshes": {
		"mesh_m0-PolyPaper21_-25496": {
			"name": "mesh_m0-PolyPaper21_-25496",
			"primitives": [
				{
					"attributes": {
						"POSITION": "accessor_position_m0-PolyPaper21_-25496",
						"NORMAL": "accessor_normal_m0-PolyPaper21_-25496",
						"COLOR": "accessor_color_m0-PolyPaper21_-25496"
					},
					"indices": "accessor_indices_0_m0-PolyPaper21_-25496",
					"material": "material_mat21",
					"mode": 4
				}
			]
		},
		"mesh_m1-PolyPaper21_-25502": {
			"name": "mesh_m1-PolyPaper21_-25502",
			"primitives": [
				{
					"attributes": {
						"POSITION": "accessor_position_m1-PolyPaper21_-25502",
						"NORMAL": "accessor_normal_m1-PolyPaper21_-25502",
						"COLOR": "accessor_color_m1-PolyPaper21_-25502"
					},
					"indices": "accessor_indices_0_m1-PolyPaper21_-25502",
					"material": "material_mat21",
					"mode": 4
				}
			]
		}
	},
	"shaders": {
		"vertex_mat21": {
			"type": 35633,
			"uri": "https://vr.google.com/shaders/w/vs.glsl"
		},
		"fragment_mat21": {
			"type": 35632,
			"uri": "https://vr.google.com/shaders/w/fs.glsl"
		}
	},
	"programs": {
		"program_mat21": {
			"attributes": [
				"a_position",
				"a_normal",
				"a_color"				
			],
			"vertexShader": "vertex_mat21",
			"fragmentShader": "fragment_mat21"
		}
	},
	"techniques": {
		"technique_mat21": {
			"program": "program_mat21",
			"extras": {"gvrss" : "https://vr.google.com/shaders/w/gvrss/paper.json"},
			"parameters": {
				"position": {
					"type": 35665,
					"semantic": "POSITION"
				},
				"normal": {
					"type": 35665,
					"semantic": "NORMAL"
				},
				"color": {
					"type": 35666,
					"semantic": "COLOR"
				},
				"modelViewMatrix": {
					"type": 35676,
					"semantic": "MODELVIEW"
				},
				"projectionMatrix": {
					"type": 35676,
					"semantic": "PROJECTION"
				},
				"normalMatrix": {
					"type": 35675,
					"semantic": "MODELVIEWINVERSETRANSPOSE"
				},
				"color": {
					"type": 35666
				},
				"roughness": {
					"type": 5126
				},
				"metallic": {
					"type": 5126
				},
				"light0Pos": {
					"type": 35666
				},
				"light0Color": {
					"type": 35666
				},
				"light1Pos": {
					"type": 35666
				},
				"light1Color": {
					"type": 35666
				}				
			},
			"attributes": {
				"a_position": "position",
				"a_normal": "normal",
				"a_color": "color"				
			},
			"uniforms": {
				"u_modelViewMatrix": "modelViewMatrix",
				"u_projectionMatrix": "projectionMatrix",
				"u_normalMatrix": "normalMatrix",
				"u_color": "color",
				"u_roughness": "roughness",
				"u_metallic": "metallic",
				"u_light0Pos": "light0Pos",
				"u_light0Color": "light0Color",
				"u_light1Pos": "light1Pos",
				"u_light1Color": "light1Color"				
			},
			"states": {
				"enable": [
					2929,
					2884
				],
				"functions": {
					"cullFace": [1029]
				}
			}
		}
	},
	"materials": {
		"material_mat21": {
			"technique": "technique_mat21",
			"values": {
				"color": [1, 1, 1, 1],
				"roughness": 1,
				"metallic": 0,
				"light0Pos": [-0.02, 4.11, -0.54, 0],
				"light0Color": [1.28, 1.232075, 1.101177, 0],
				"light1Pos": [0.02, -4.11, 0.54, 0],
				"light1Color": [0.2941177, 0.2953672, 0.32, 0]				
			},
			"name": "material_mat21"
		}
	},
	"nodes": {
		"node_MeshObject95084544-PolyPaper21": {
			"name": "node_MeshObject95084544-PolyPaper21",
			"meshes": [
				"mesh_m0-PolyPaper21_-25496"
			],
			"matrix": [1, 0, 0, 0, 0, 1, 0, 0, 0, 0, 1, 0, 0, 0, 0, 1]
		},
		"node_MeshObject667163648-PolyPaper21": {
			"name": "node_MeshObject667163648-PolyPaper21",
			"meshes": [
				"mesh_m1-PolyPaper21_-25502"
			],
			"matrix": [1, 0, 0, 0, 0, 1, 0, 0, 0, 0, 1, 0, 0, 0, 0, 1]
		}
	},
	"scene": "defaultScene",
	"scenes": {
		"defaultScene": {
			"nodes": [
				"node_MeshObject95084544-PolyPaper21",
				"node_MeshObject667163648-PolyPaper21"
			],
			"extras": {

			}
		}
	}
}