{
	"asset": {
		"generator": "Tilt Brush 22.3.bfe37158d",
		"version": "1.1",
		"copyright": "Unknown."
	},
	"buffers": {
		"buffer_sketch": {
			"byteLength": 377124,
			"type": "arraybuffer",
			"uri": "sketch.bin"
		}
	},
	"accessors": {
		"accessor_position_Light_2241cd32-8ba2-48a5-9ee7-2caef7e9ed62_0_i0": {
			"bufferView": "vec3BufferView",
			"byteOffset": 0,
			"byteStride": 12,
			"componentType": 5126,
			"count": 5334,
			"max": [ 0.377594322, 0.974502087, 0.0124904951 ],
			"min": [ -0.428440809, 0.189582989, -0.00894328486 ],
			"type": "VEC3"
		},
		"accessor_normal_Light_2241cd32-8ba2-48a5-9ee7-2caef7e9ed62_0_i0": {
			"bufferView": "vec3BufferView",
			"byteOffset": 64008,
			"byteStride": 12,
			"componentType": 5126,
			"count": 5334,
			"max": [ 0.0246742219, 0.00200215378, 0.999712706 ],
			"min": [ -0.0247682594, -0.00164028816, -0.999700665 ],
			"type": "VEC3"
		},
		"accessor_color_Light_2241cd32-8ba2-48a5-9ee7-2caef7e9ed62_0_i0": {
			"bufferView": "vec4BufferView",
			"byteOffset": 0,
			"byteStride": 16,
			"componentType": 5126,
			"count": 5334,
			"type": "VEC4"
		},
		"accessor_tangent_Light_2241cd32-8ba2-48a5-9ee7-2caef7e9ed62_0_i0": {
			"bufferView": "vec4BufferView",
			"byteOffset": 85344,
			"byteStride": 16,
			"componentType": 5126,
			"count": 5334,
			"max": [ 0.999701381, 0.999997854, 0.0247584712, 1 ],
			"min": [ -0.999696553, -0.999998391, -0.024517728, 1 ],
			"type": "VEC4"
		},
		"accessor_uv0_Light_2241cd32-8ba2-48a5-9ee7-2caef7e9ed62_0_i0": {
			"bufferView": "vec2BufferView",
			"byteOffset": 0,
			"byteStride": 8,
			"componentType": 5126,
			"count": 5334,
			"max": [ 1, 1 ],
			"min": [ 0, 0 ],
			"type": "VEC2"
		},
		"accessor_indices_0_Light_2241cd32-8ba2-48a5-9ee7-2caef7e9ed62_0_i0": {
			"bufferView": "ushortBufferView",
			"byteOffset": 0,
			"byteStride": 0,
			"componentType": 5123,
			"count": 15606,
			"max": [ 5333 ],
			"min": [ 0 ],
			"type": "SCALAR"
		},
		"accessor_position_DiamondHull_c8313697-2563-47fc-832e-290f4c04b901_0_i0": {
			"bufferView": "vec3BufferView",
			"byteOffset": 128016,
			"byteStride": 12,
			"componentType": 5126,
			"count": 84,
			"max": [ 0.482817143, 1.44338, 0.498357743 ],
			"min": [ -0.506655395, -0.0391926877, -0.490583748 ],
			"type": "VEC3"
		},
		"accessor_normal_DiamondHull_c8313697-2563-47fc-832e-290f4c04b901_0_i0": {
			"bufferView": "vec3BufferView",
			"byteOffset": 129024,
			"byteStride": 12,
			"componentType": 5126,
			"count": 84,
			"max": [ 0.724225342, 0.864079654, 0.724223971 ],
			"min": [ -0.724225461, -0.99580282, -0.72422415 ],
			"type": "VEC3"
		},
		"accessor_color_DiamondHull_c8313697-2563-47fc-832e-290f4c04b901_0_i0": {
			"bufferView": "vec4BufferView",
			"byteOffset": 170688,
			"byteStride": 16,
			"componentType": 5126,
			"count": 84,
			"type": "VEC4"
		},
		"accessor_uv0_DiamondHull_c8313697-2563-47fc-832e-290f4c04b901_0_i0": {
			"bufferView": "vec3BufferView",
			"byteOffset": 130032,
			"byteStride": 12,
			"componentType": 5126,
			"count": 84,
			"max": [ 0, 1, 0.0987859145 ],
			"min": [ 0, 1, 0.0987859145 ],
			"type": "VEC3"
		},
		"accessor_indices_0_DiamondHull_c8313697-2563-47fc-832e-290f4c04b901_0_i0": {
			"bufferView": "ushortBufferView",
			"byteOffset": 31212,
			"byteStride": 0,
			"componentType": 5123,
			"count": 84,
			"max": [ 83 ],
			"min": [ 0 ],
			"type": "SCALAR"
		}
	},
	"bufferViews": {
		"ushortBufferView": {
			"buffer": "buffer_sketch",
			"byteLength": 31380,
			"byteOffset": 0,
			"target": 34963
		},
		"vec2BufferView": {
			"buffer": "buffer_sketch",
			"byteLength": 42672,
			"byteOffset": 31380,
			"target": 34962
		},
		"vec3BufferView": {
			"buffer": "buffer_sketch",
			"byteLength": 131040,
			"byteOffset": 74052,
			"target": 34962
		},
		"vec4BufferView": {
			"buffer": "buffer_sketch",
			"byteLength": 172032,
			"byteOffset": 205092,
			"target": 34962
		}
	},
	"meshes": {
		"mesh_Light_2241cd32-8ba2-48a5-9ee7-2caef7e9ed62_0_i0": {
			"name": "mesh_Light_2241cd32-8ba2-48a5-9ee7-2caef7e9ed62_0_i0",
			"primitives": [
				{
					"attributes": {
						"POSITION": "accessor_position_Light_2241cd32-8ba2-48a5-9ee7-2caef7e9ed62_0_i0",
						"NORMAL": "accessor_normal_Light_2241cd32-8ba2-48a5-9ee7-2caef7e9ed62_0_i0",
						"COLOR": "accessor_color_Light_2241cd32-8ba2-48a5-9ee7-2caef7e9ed62_0_i0",
						"TANGENT": "accessor_tangent_Light_2241cd32-8ba2-48a5-9ee7-2caef7e9ed62_0_i0",
						"TEXCOORD_0": "accessor_uv0_Light_2241cd32-8ba2-48a5-9ee7-2caef7e9ed62_0_i0"
					},
					"indices": "accessor_indices_0_Light_2241cd32-8ba2-48a5-9ee7-2caef7e9ed62_0_i0",
					"material": "material_2241cd32-8ba2-48a5-9ee7-2caef7e9ed62",
					"mode": 4
				}
			]
		},
		"mesh_DiamondHull_c8313697-2563-47fc-832e-290f4c04b901_0_i0": {
			"name": "mesh_DiamondHull_c8313697-2563-47fc-832e-290f4c04b901_0_i0",
			"primitives": [
				{
					"attributes": {
						"POSITION": "accessor_position_DiamondHull_c8313697-2563-47fc-832e-290f4c04b901_0_i0",
						"NORMAL": "accessor_normal_DiamondHull_c8313697-2563-47fc-832e-290f4c04b901_0_i0",
						"COLOR": "accessor_color_DiamondHull_c8313697-2563-47fc-832e-290f4c04b901_0_i0",
						"TEXCOORD_0": "accessor_uv0_DiamondHull_c8313697-2563-47fc-832e-290f4c04b901_0_i0"
					},
					"indices": "accessor_indices_0_DiamondHull_c8313697-2563-47fc-832e-290f4c04b901_0_i0",
					"material": "material_c8313697-2563-47fc-832e-290f4c04b901",
					"mode": 4
				}
			]
		}
	},
	"shaders": {
		"vertex_2241cd32-8ba2-48a5-9ee7-2caef7e9ed62": {
			"type": 35633,
			"uri": "https://www.tiltbrush.com/shaders/brushes/Light-2241cd32-8ba2-48a5-9ee7-2caef7e9ed62/Light-2241cd32-8ba2-48a5-9ee7-2caef7e9ed62-v10.0-vertex.glsl"
		},
		"fragment_2241cd32-8ba2-48a5-9ee7-2caef7e9ed62": {
			"type": 35632,
			"uri": "https://www.tiltbrush.com/shaders/brushes/Light-2241cd32-8ba2-48a5-9ee7-2caef7e9ed62/Light-2241cd32-8ba2-48a5-9ee7-2caef7e9ed62-v10.0-fragment.glsl"
		},
		"vertex_c8313697-2563-47fc-832e-290f4c04b901": {
			"type": 35633,
			"uri": "https://www.tiltbrush.com/shaders/brushes/DiamondHull-c8313697-2563-47fc-832e-290f4c04b901/DiamondHull-c8313697-2563-47fc-832e-290f4c04b901-v10.0-vertex.glsl"
		},
		"fragment_c8313697-2563-47fc-832e-290f4c04b901": {
			"type": 35632,
			"uri": "https://www.tiltbrush.com/shaders/brushes/DiamondHull-c8313697-2563-47fc-832e-290f4c04b901/DiamondHull-c8313697-2563-47fc-832e-290f4c04b901-v10.0-fragment.glsl"
		}
	},
	"programs": {
		"program_2241cd32-8ba2-48a5-9ee7-2caef7e9ed62": {
			"attributes": [
				"a_position",
				"a_normal",
				"a_color",
				"a_tangent",
				"a_texcoord0"
			],
			"vertexShader": "vertex_2241cd32-8ba2-48a5-9ee7-2caef7e9ed62",
			"fragmentShader": "fragment_2241cd32-8ba2-48a5-9ee7-2caef7e9ed62"
		},
		"program_c8313697-2563-47fc-832e-290f4c04b901": {
			"attributes": [
				"a_position",
				"a_normal",
				"a_color",
				"a_texcoord0"
			],
			"vertexShader": "vertex_c8313697-2563-47fc-832e-290f4c04b901",
			"fragmentShader": "fragment_c8313697-2563-47fc-832e-290f4c04b901"
		}
	},
	"techniques": {
		"technique_2241cd32-8ba2-48a5-9ee7-2caef7e9ed62": {
			"program": "program_2241cd32-8ba2-48a5-9ee7-2caef7e9ed62",
			"parameters": {
				"position": {
					"type": 35665,
					"semantic": "POSITION"
				},
				"normal": {
					"type": 35665,
					"semantic": "NORMAL"
				},
				"color": {
					"type": 35666,
					"semantic": "COLOR"
				},
				"tangent": {
					"type": 35666,
					"semantic": "TANGENT"
				},
				"texcoord0": {
					"type": 35664,
					"semantic": "TEXCOORD_0"
				},
				"modelViewMatrix": {
					"type": 35676,
					"semantic": "MODELVIEW"
				},
				"projectionMatrix": {
					"type": 35676,
					"semantic": "PROJECTION"
				},
				"normalMatrix": {
					"type": 35675,
					"semantic": "MODELVIEWINVERSETRANSPOSE"
				},
				"SceneLight_0_matrix": {
					"type": 35676,
					"semantic": "MODELVIEW",
					"node": "node_SceneLight_0_i1"
				},
				"SceneLight_0_color": {
					"type": 35666,
					"node": "node_SceneLight_0_i1"
				},
				"SceneLight_1_matrix": {
					"type": 35676,
					"semantic": "MODELVIEW",
					"node": "node_SceneLight_1_i2"
				},
				"SceneLight_1_color": {
					"type": 35666,
					"node": "node_SceneLight_1_i2"
				},
				"ambient_light_color": {
					"type": 35666
				},
				"EmissionGain": {
					"type": 5126
				},
				"MainTex_TexelSize": {
					"type": 35666
				},
				"MainTex": {
					"type": 35678
				}
			},
			"attributes": {
				"a_position": "position",
				"a_normal": "normal",
				"a_color": "color",
				"a_tangent": "tangent",
				"a_texcoord0": "texcoord0"
			},
			"uniforms": {
				"u_modelViewMatrix": "modelViewMatrix",
				"u_projectionMatrix": "projectionMatrix",
				"u_normalMatrix": "normalMatrix",
				"u_SceneLight_0_matrix": "SceneLight_0_matrix",
				"u_SceneLight_0_color": "SceneLight_0_color",
				"u_SceneLight_1_matrix": "SceneLight_1_matrix",
				"u_SceneLight_1_color": "SceneLight_1_color",
				"u_ambient_light_color": "ambient_light_color",
				"u_EmissionGain": "EmissionGain",
				"u_MainTex_TexelSize": "MainTex_TexelSize",
				"u_MainTex": "MainTex"
			},
			"states": {
				"enable": [
					2929,
					3042
				],
				"functions": {
					"blendFuncSeparate": [1, 1, 1, 1],
					"depthMask": [false]
				}
			}
		},
		"technique_c8313697-2563-47fc-832e-290f4c04b901": {
			"program": "program_c8313697-2563-47fc-832e-290f4c04b901",
			"parameters": {
				"position": {
					"type": 35665,
					"semantic": "POSITION"
				},
				"normal": {
					"type": 35665,
					"semantic": "NORMAL"
				},
				"color": {
					"type": 35666,
					"semantic": "COLOR"
				},
				"texcoord0": {
					"type": 35665,
					"semantic": "TEXCOORD_0"
				},
				"modelViewMatrix": {
					"type": 35676,
					"semantic": "MODELVIEW"
				},
				"projectionMatrix": {
					"type": 35676,
					"semantic": "PROJECTION"
				},
				"normalMatrix": {
					"type": 35675,
					"semantic": "MODELVIEWINVERSETRANSPOSE"
				},
				"SceneLight_0_matrix": {
					"type": 35676,
					"semantic": "MODELVIEW",
					"node": "node_SceneLight_0_i1"
				},
				"SceneLight_0_color": {
					"type": 35666,
					"node": "node_SceneLight_0_i1"
				},
				"SceneLight_1_matrix": {
					"type": 35676,
					"semantic": "MODELVIEW",
					"node": "node_SceneLight_1_i2"
				},
				"SceneLight_1_color": {
					"type": 35666,
					"node": "node_SceneLight_1_i2"
				},
				"ambient_light_color": {
					"type": 35666
				},
				"MainTex_TexelSize": {
					"type": 35666
				},
				"MainTex": {
					"type": 35678
				}
			},
			"attributes": {
				"a_position": "position",
				"a_normal": "normal",
				"a_color": "color",
				"a_texcoord0": "texcoord0"
			},
			"uniforms": {
				"u_modelViewMatrix": "modelViewMatrix",
				"u_projectionMatrix": "projectionMatrix",
				"u_normalMatrix": "normalMatrix",
				"u_SceneLight_0_matrix": "SceneLight_0_matrix",
				"u_SceneLight_0_color": "SceneLight_0_color",
				"u_SceneLight_1_matrix": "SceneLight_1_matrix",
				"u_SceneLight_1_color": "SceneLight_1_color",
				"u_ambient_light_color": "ambient_light_color",
				"u_MainTex_TexelSize": "MainTex_TexelSize",
				"u_MainTex": "MainTex"
			},
			"states": {
				"enable": [
					2929,
					3042
				],
				"functions": {
					"blendFuncSeparate": [1, 1, 1, 1],
					"depthMask": [false]
				}
			}
		}
	},
	"samplers": {
		"sampler_LINEAR_LINEAR_MIPMAP_LINEAR_REPEAT": {
			"magFilter": 9729,
			"minFilter": 9987,
			"wrapS": 10497,
			"wrapT": 10497
		}
	},
	"textures": {
		"texture_2241cd32-8ba2-48a5-9ee7-2caef7e9ed62_MainTex": {
			"format": 6408,
			"internalFormat": 6408,
			"sampler": "sampler_LINEAR_LINEAR_MIPMAP_LINEAR_REPEAT",
			"source": "image_2241cd32-8ba2-48a5-9ee7-2caef7e9ed62_MainTex",
			"target": 3553,
			"type": 5121
		},
		"texture_c8313697-2563-47fc-832e-290f4c04b901_MainTex": {
			"format": 6408,
			"internalFormat": 6408,
			"sampler": "sampler_LINEAR_LINEAR_MIPMAP_LINEAR_REPEAT",
			"source": "image_c8313697-2563-47fc-832e-290f4c04b901_MainTex",
			"target": 3553,
			"type": 5121
		}
	},
	"images": {
		"image_2241cd32-8ba2-48a5-9ee7-2caef7e9ed62_MainTex": {
			"uri": "https://www.tiltbrush.com/shaders/brushes/Light-2241cd32-8ba2-48a5-9ee7-2caef7e9ed62/Light-2241cd32-8ba2-48a5-9ee7-2caef7e9ed62-v10.0-MainTex.png"
		},
		"image_c8313697-2563-47fc-832e-290f4c04b901_MainTex": {
			"uri": "https://www.tiltbrush.com/shaders/brushes/DiamondHull-c8313697-2563-47fc-832e-290f4c04b901/DiamondHull-c8313697-2563-47fc-832e-290f4c04b901-v10.0-MainTex.png"
		}
	},
	"materials": {
		"material_2241cd32-8ba2-48a5-9ee7-2caef7e9ed62": {
			"technique": "technique_2241cd32-8ba2-48a5-9ee7-2caef7e9ed62",
			"values": {
				"SceneLight_0_color": [0.7780392, 0.8156863, 0.9913726, 1],
				"SceneLight_1_color": [0.4282353, 0.4211765, 0.3458824, 1],
				"ambient_light_color": [0.3921569, 0.3921569, 0.3921569, 1],
				"EmissionGain": 0.45,
				"MainTex_TexelSize": [0.001953125, 0.00390625, 512, 256],
				"MainTex": "texture_2241cd32-8ba2-48a5-9ee7-2caef7e9ed62_MainTex"
			},
			"name": "material_2241cd32-8ba2-48a5-9ee7-2caef7e9ed62"
		},
		"material_c8313697-2563-47fc-832e-290f4c04b901": {
			"technique": "technique_c8313697-2563-47fc-832e-290f4c04b901",
			"values": {
				"SceneLight_0_color": [0.7780392, 0.8156863, 0.9913726, 1],
				"SceneLight_1_color": [0.4282353, 0.4211765, 0.3458824, 1],
				"ambient_light_color": [0.3921569, 0.3921569, 0.3921569, 1],
				"MainTex_TexelSize": [0.0078125, 0.0078125, 128, 128],
				"MainTex": "texture_c8313697-2563-47fc-832e-290f4c04b901_MainTex"
			},
			"name": "material_c8313697-2563-47fc-832e-290f4c04b901"
		}
	},
	"nodes": {
		"node_Light_2241cd32-8ba2-48a5-9ee7-2caef7e9ed62_0_i0": {
			"name": "node_Light_2241cd32-8ba2-48a5-9ee7-2caef7e9ed62_0_i0",
			"meshes": [
				"mesh_Light_2241cd32-8ba2-48a5-9ee7-2caef7e9ed62_0_i0"
			],
			"matrix": [1, 0, 0, 0, 0, 1, 0, 0, 0, 0, 1, 0, 0, 0, 0, 1]
		},
		"node_SceneLight_0_i1": {
			"name": "node_SceneLight_0_i1",
			"light": "SceneLight_0",
			"matrix": [0.898794, 0.2191856, -0.3796406, 0, -0.4383712, 0.449397, -0.7783785, 0, -1.490116E-08, 0.8660254, 0.4999999, 0, 0, 0.021875, 0.05458749, 1]
		},
		"node_SceneLight_1_i2": {
			"name": "node_SceneLight_1_i2",
			"light": "SceneLight_1",
			"matrix": [0.7660444, -0.4924039, -0.4131759, 0, -0.6427876, -0.5868242, -0.4924039, 0, 8.940697E-08, 0.6427876, -0.7660446, 0, 0, 0.021875, 0.05458749, 1]
		},
		"node_DiamondHull_c8313697-2563-47fc-832e-290f4c04b901_0_i0": {
			"name": "node_DiamondHull_c8313697-2563-47fc-832e-290f4c04b901_0_i0",
			"meshes": [
				"mesh_DiamondHull_c8313697-2563-47fc-832e-290f4c04b901_0_i0"
			],
			"matrix": [1, 0, 0, 0, 0, 1, 0, 0, 0, 0, 1, 0, 0, 0, 0, 1]
		},
		"empty_sun-moon-print-set_0": {
			"name": "empty_sun-moon-print-set_0",
			"matrix": [-0.7394032, -0.5795539, 0.3426382, 0, -0.1071264, 0.6037127, 0.7899718, 0, -0.6646861, 0.5474018, -0.5084726, 0, 3.950631, 1.645248, 0.7455492, 1]
		}
	},
	"scene": "defaultScene",
	"scenes": {
		"defaultScene": {
			"nodes": [
				"node_Light_2241cd32-8ba2-48a5-9ee7-2caef7e9ed62_0_i0",
				"node_SceneLight_0_i1",
				"node_SceneLight_1_i2",
				"node_DiamondHull_c8313697-2563-47fc-832e-290f4c04b901_0_i0",
				"empty_sun-moon-print-set_0"
			],
			"extras": {
				"TB_EnvironmentGuid": "ab080599-e465-4a6d-8587-43bf495af68b",
				"TB_Environment": "Standard",
				"TB_UseGradient": "true",
				"TB_SkyColorA": "0.2745098, 0.2745098, 0.3176471",
				"TB_SkyColorB": "0.03529412, 0.03529412, 0.08627451",
				"TB_SkyGradientDirection": "0, 1, 0",
				"TB_FogColor": "0.1647059, 0.1647059, 0.2078431",
				"TB_FogDensity": "0.0025",
				"TB_SkyColorHorizon": "0.2745098, 0.2745098, 0.3176471",
				"TB_SkyColorZenith": "0.03529412, 0.03529412, 0.08627451"
			}
		}
	}
}